<svg width="128" height="128" viewBox="0 0 128 128" fill="none" xmlns="http://www.w3.org/2000/svg">
  <defs>
    <linearGradient id="g1" x1="20" y1="16" x2="108" y2="112" gradientUnits="userSpaceOnUse">
      <stop stop-color="#7B3FCB"/>
      <stop offset="1" stop-color="#5C2D91"/>
    </linearGradient>
    <linearGradient id="g2" x1="64" y1="34" x2="64" y2="104" gradientUnits="userSpaceOnUse">
      <stop stop-color="#E7D3FF"/>
      <stop offset="1" stop-color="#FFFFFF"/>
    </linearGradient>
  </defs>
  <rect width="128" height="128" rx="28" fill="#F4ECFF"/>
  <path d="M64 16L104 30V58C104 82.5 87.2 104.8 64 112C40.8 104.8 24 82.5 24 58V30L64 16Z" fill="url(#g1)"/>
  <path d="M64 36C59 28.7 48.2 27.4 41.6 34.2C34 42 34.3 54.9 42.1 62.3L64 83L85.9 62.3C93.7 54.9 94 42 86.4 34.2C79.8 27.4 69 28.7 64 36Z" fill="url(#g2)"/>
  <circle cx="64" cy="64" r="52" stroke="#E5D8FB" stroke-width="2"/>
</svg>
